<?xml version="1.0" encoding="UTF-8"?>
<!DOCTYPE svg PUBLIC "-//W3C//DTD SVG 1.1//EN" "http://www.w3.org/Graphics/SVG/1.1/DTD/svg11.dtd">
<svg xmlns="http://www.w3.org/2000/svg" version="1.1" width="1647px" height="1647px" style="shape-rendering:geometricPrecision; text-rendering:geometricPrecision; image-rendering:optimizeQuality; fill-rule:evenodd; clip-rule:evenodd" xmlns:xlink="http://www.w3.org/1999/xlink">
<g><path style="opacity:1" fill="#ec7366" d="M 163.5,-0.5 C 603.167,-0.5 1042.83,-0.5 1482.5,-0.5C 1556.33,10.4983 1607.5,50.4983 1636,119.5C 1640.79,133.317 1644.29,147.317 1646.5,161.5C 1646.5,602.5 1646.5,1043.5 1646.5,1484.5C 1636.86,1548.3 1603.86,1595.8 1547.5,1627C 1527.42,1636.86 1506.42,1643.36 1484.5,1646.5C 1043.5,1646.5 602.5,1646.5 161.5,1646.5C 93.8217,1635.98 44.9883,1599.98 15,1538.5C 7.31336,1520.41 2.1467,1501.74 -0.5,1482.5C -0.5,1042.83 -0.5,603.167 -0.5,163.5C 11.8315,84.0178 56.1648,31.5178 132.5,6C 142.85,3.2312 153.184,1.06453 163.5,-0.5 Z"/></g>
<g><path style="opacity:1" fill="#fefefe" d="M 579.5,325.5 C 595.374,324.887 611.041,326.387 626.5,330C 654.321,338.999 667.987,358.165 667.5,387.5C 667.887,426.938 648.554,448.438 609.5,452C 599.366,453.934 589.699,457.267 580.5,462C 575.125,466.039 571.291,471.206 569,477.5C 565.981,486.592 563.981,495.925 563,505.5C 560.728,553.488 558.728,601.488 557,649.5C 556.142,682.328 549.809,713.994 538,744.5C 528.654,764.845 515.821,782.679 499.5,798C 488.822,806.995 477.822,815.495 466.5,823.5C 486.717,836.233 504.551,851.899 520,870.5C 532.446,887.059 541.446,905.392 547,925.5C 554.113,955.067 558.113,985.067 559,1015.5C 559.231,1050.51 559.898,1085.51 561,1120.5C 561.467,1135.91 564.134,1150.91 569,1165.5C 573.474,1178.98 582.641,1187.14 596.5,1190C 607.073,1192.51 617.739,1194.51 628.5,1196C 645.15,1201.32 656.65,1212.15 663,1228.5C 677.371,1289.4 653.204,1320.06 590.5,1320.5C 540.779,1321.04 498.946,1303.38 465,1267.5C 441.529,1237.34 429.529,1203 429,1164.5C 428.444,1107.8 426.777,1051.13 424,994.5C 422.594,957.523 407.76,927.356 379.5,904C 366.44,894.608 353.106,885.608 339.5,877C 333.365,871.866 327.531,866.366 322,860.5C 315.248,848.768 312.415,836.101 313.5,822.5C 312.885,799.82 321.551,781.653 339.5,768C 361.031,755.479 380.865,740.646 399,723.5C 411.639,707.32 419.305,688.986 422,668.5C 423.187,660.189 424.187,651.855 425,643.5C 426.945,580.825 428.945,518.158 431,455.5C 443.216,386.619 483.383,344.453 551.5,329C 560.983,327.855 570.316,326.688 579.5,325.5 Z"/></g>
<g><path style="opacity:1" fill="#fefefe" d="M 1040.5,325.5 C 1078.61,323.402 1114.27,331.568 1147.5,350C 1188.97,378.083 1212.14,417.25 1217,467.5C 1217.83,533.892 1220.17,600.225 1224,666.5C 1228.71,697.76 1243.54,722.926 1268.5,742C 1281.83,751 1295.17,760 1308.5,769C 1326.32,782.1 1334.32,799.767 1332.5,822C 1334.2,845.26 1325.87,863.926 1307.5,878C 1285.35,890.475 1265.18,905.642 1247,923.5C 1233.53,940.8 1225.86,960.467 1224,982.5C 1223.66,988.539 1223,994.539 1222,1000.5C 1219.83,1059.15 1218.16,1117.82 1217,1176.5C 1206.43,1262.07 1158.26,1309.91 1072.5,1320C 1054.6,1321.52 1036.93,1320.19 1019.5,1316C 989.081,1304.36 975.581,1282.19 979,1249.5C 980.392,1230.61 988.225,1215.11 1002.5,1203C 1007.11,1199.86 1012.11,1197.53 1017.5,1196C 1031.74,1194.07 1045.74,1191.07 1059.5,1187C 1070.46,1181.02 1077.3,1171.85 1080,1159.5C 1081.44,1151.18 1082.77,1142.85 1084,1134.5C 1085.55,1088.51 1086.88,1042.51 1088,996.5C 1089.57,972.164 1093.23,948.164 1099,924.5C 1108.06,893.865 1124.56,868.032 1148.5,847C 1158.63,838.434 1169.3,830.601 1180.5,823.5C 1161.08,811.585 1143.91,796.918 1129,779.5C 1106.33,747.158 1093.33,711.158 1090,671.5C 1087.94,650.215 1086.6,628.882 1086,607.5C 1085.84,574.82 1085.17,542.153 1084,509.5C 1082.84,498.228 1080.51,487.228 1077,476.5C 1073.17,467.333 1066.67,460.833 1057.5,457C 1043.02,453.058 1028.35,450.058 1013.5,448C 996.923,440.084 986.089,427.25 981,409.5C 970.887,359.835 990.72,331.835 1040.5,325.5 Z"/></g>
</svg>
